<?xml version="1.0" encoding="iso-8859-1"?>
<!-- Generator: Adobe Illustrator 21.0.0, SVG Export Plug-In . SVG Version: 6.00 Build 0)  -->
<svg xmlns="http://www.w3.org/2000/svg" xmlns:xlink="http://www.w3.org/1999/xlink" version="1.1" id="Capa_1" x="0px" y="0px" viewBox="0 0 512 512" style="enable-background:new 0 0 512 512;" xml:space="preserve" width="512" height="512">
<g>
	<path style="fill:#fff;" d="M488.347,51.737c-0.394-14.357-12.585-26.038-27.176-26.038h-17.331C447.348,12.735,437.619,0,423.886,0H309.551   c-11.535,0-20.747,9.543-20.337,21.085c0.392,10.999,9.46,19.614,20.645,19.614h51.235c-7.169,14.576,0.299,32.388,16.017,37.34   c-5.044,6.286-8.063,14.26-8.063,22.927V124c0,4.142,3.357,7.5,7.5,7.5s7.5-3.358,7.5-7.5v-23.034   c0-11.964,9.733-21.697,21.697-21.697c4.143,0,7.5-3.358,7.5-7.5s-3.357-7.5-7.5-7.5h-20.6c-6.498,0-11.785-5.287-11.785-11.786   s5.287-11.785,11.785-11.785c4.143,0,7.5-3.358,7.5-7.5s-3.357-7.5-7.5-7.5h-75.286c-3.017,0-5.553-2.309-5.654-5.147   c-0.108-3.062,2.33-5.552,5.347-5.552h114.336c3.017,0,5.553,2.31,5.654,5.147c0.107,3.054-2.322,5.552-5.346,5.552   c-4.143,0-7.5,3.358-7.5,7.5s3.357,7.5,7.5,7.5h36.977c6.544,0,12.009,5.136,12.182,11.449c0.183,6.69-5.174,12.122-11.78,12.122   H436.55c-4.143,0-7.5,3.358-7.5,7.5s3.357,7.5,7.5,7.5c5.051,0,9.133,4.153,8.993,9.254c-0.132,4.818-4.32,8.738-9.336,8.738   h-29.333c-8.048,0-14.595,6.547-14.595,14.594v57.929h-8.232V159c0-4.142-3.357-7.5-7.5-7.5s-7.5,3.358-7.5,7.5v14.285   c-2.407,3.576-0.865,3.049-1.343,50.047c-8.366,8.504-10.474,21.131-5.742,31.79v1.745h-2.069c-4.143,0-7.5,3.358-7.5,7.5   s3.357,7.5,7.5,7.5h2.069v73.209c-8.55,2.867-14.734,10.939-14.734,20.442c0,11.71,9.385,21.25,21.026,21.542v47.33   c0,15.912-12.945,28.857-28.857,28.857c-15.911,0-28.856-12.945-28.856-28.857v-76.532c0-4.142-3.357-7.5-7.5-7.5   s-7.5,3.358-7.5,7.5v76.532c0,24.183,19.674,43.857,43.856,43.857s43.857-19.674,43.857-43.857v-47.302h10v47.302   c0,29.697-24.16,53.857-53.857,53.857c-29.696,0-53.856-24.16-53.856-53.857v-170.5c0-24.183-19.675-43.857-43.857-43.857   c-2.447,0.23-20.041-1.629-41.05,8.08l-5.017-8.69c23.696-11.22,43.495-9.138,46.067-9.389c29.697,0,53.857,24.16,53.857,53.857   v58.967c0,4.142,3.357,7.5,7.5,7.5s7.5-3.358,7.5-7.5V263.89c0-37.968-30.89-68.857-68.857-68.857   c-2.591,0.278-27.071-2.201-55.503,12.319c-2.584-0.968-5.505-0.8-8.031,0.658l-20.84,12.032c0.001-0.549-0.308,3.321,2.089-24.261   h15.465c18.569,0,33.677-15.107,33.677-33.676v-7.77c0-4.142-3.357-7.5-7.5-7.5h-42.052l-3.679-30.189   c1.03-0.153,4.893,0.777,7.807-2.604c1.425-1.653,2.06-3.844,1.737-6.002l-5.684-38.121c10.32-3.675,17.73-13.538,17.73-25.104   v-5.844c7.543-2.923,12.914-10.237,12.914-18.799C189.814,9.049,180.765,0,169.642,0h-65.188C93.332,0,84.283,9.049,84.283,20.172   c0,8.562,5.371,15.877,12.914,18.799v5.844c0,11.566,7.411,21.43,17.731,25.104l-5.684,38.121c-0.322,2.158,0.313,4.35,1.737,6.002   c2.915,3.381,6.767,2.449,7.807,2.604l-3.679,30.189H73.058c-4.143,0-7.5,3.358-7.5,7.5v7.77c0,18.569,15.106,33.676,33.676,33.676   h15.465c1.399,22.464,3.533,24.839,0.588,28.833l-19.824,26.892c-7.039,9.55-3.431,22.809,6.805,27.81v26.97   c0,1.374,0.375,2.658,1.021,3.765v20.533h-3.982c-8.554,0-10.408,12.133-2.219,14.666l-42.181,64.031   c-2.278,3.459-1.321,8.11,2.138,10.389c3.461,2.279,8.111,1.323,10.39-2.137l47.396-71.949h44.438l71.547,108.611   c12.112,18.385-1.05,42.805-23.06,42.805H66.343c-22.018,0-35.168-24.425-23.06-42.805l4.896-7.434   c2.278-3.459,1.321-8.11-2.139-10.389c-3.457-2.277-8.109-1.32-10.389,2.138l-4.896,7.434C12.068,474.317,32.375,512,66.343,512   h141.411c33.974,0,54.27-37.69,35.587-66.056L177.01,345.25c8.194-2.534,6.328-14.666-2.219-14.666h-3.982v-20.533   c0.645-1.107,1.021-2.391,1.021-3.765v-26.97c7.373-3.602,11.549-11.683,10.201-19.792l19.398-11.2   c2.374-1.372,3.915-3.631,4.469-6.117c18.105-8.716,33.405-6.949,35.786-7.175c15.912,0,28.857,12.945,28.857,28.857v170.5   c0,37.968,30.889,68.857,68.856,68.857s68.857-30.889,68.857-68.857v-47.33c11.641-0.292,21.026-9.832,21.026-21.542   c0-9.503-6.185-17.574-14.734-20.442v-73.209h2.069c4.143,0,7.5-3.358,7.5-7.5s-3.357-7.5-7.5-7.5h-2.069v-1.745   c4.722-10.642,2.641-23.268-5.742-31.79c-0.544-46.728,1.211-46.548-1.524-50.292v-60.778h28.928   c16.798,0,29.097-16.943,22.605-32.993h2.761C476.668,79.27,488.762,66.843,488.347,51.737z M125.363,101.646l4.502-30.189h14.368   l4.501,30.189H125.363z M104.455,15h65.188c2.852,0,5.172,2.32,5.172,5.172s-2.32,5.172-5.172,5.172h-65.188   c-2.852,0-5.172-2.32-5.172-5.172S101.603,15,104.455,15z M112.197,40.344H161.9v4.471c0,6.419-5.223,11.642-11.642,11.642H123.84   c-6.42,0-11.643-5.223-11.643-11.642V40.344z M133.9,116.646h6.297l3.679,30.189h-13.655L133.9,116.646z M80.558,162.105v-0.27   c26.435,0,89.9,0,112.981,0v0.27c0,10.298-8.378,18.676-18.677,18.676H99.234C88.936,180.782,80.558,172.404,80.558,162.105z    M107.538,260.407l19.824-26.893c3.281-4.452,4.823-9.937,4.342-15.443l-1.947-22.29h14.584l-1.947,22.291   c-0.48,5.508,1.062,10.992,4.342,15.443c25.947,35.205,18.495,24.992,19.859,26.947c1.714,2.402,0.009,5.75-2.966,5.75h-53.158   C107.477,266.212,105.762,262.817,107.538,260.407z M156.829,298.786h-39.561v-17.574h39.561V298.786z M118.289,330.584v-16.798   h37.52v16.798H118.289z M174.837,246.356l-9.884-13.407l15.864-9.159l8.276,14.335L174.837,246.356z M407.711,372.087h-38.914   c-3.622,0-6.569-2.947-6.569-6.57s2.947-6.57,6.569-6.57h38.914c3.622,0,6.569,2.947,6.569,6.57S411.333,372.087,407.711,372.087z    M399.546,343.947h-22.584v-72.081h22.584V343.947z M376.962,256.867c-0.133-2.611,0.422-4.531-0.875-6.978   c-3.098-5.838-1.647-13.111,3.728-17.298c1.823-1.421,2.89-3.604,2.89-5.916v-41.889h11.1v41.889c0,2.312,1.066,4.495,2.891,5.916   c5.464,4.257,6.768,11.571,3.727,17.298c-1.299,2.449-0.742,4.375-0.875,6.978H376.962z"/>
</g>















</svg>
