<?xml version="1.0"?>
<svg xmlns="http://www.w3.org/2000/svg" viewBox="0 0 50 50">
    <path style="fill:#fff;line-height:normal;text-indent:0;text-align:start;text-decoration-line:none;text-decoration-style:solid;text-transform:none;block-progression:tb;isolation:auto;mix-blend-mode:normal" d="M 13.214844 3.828125 C 12.906497 3.8240103 12.592845 3.892523 12.298828 4.0449219 L 4.0625 8.2988281 C 2.886055 8.9056467 2.6298817 10.547844 3.5625 11.486328 L 10.539062 18.5 C 9.8473449 19.218808 9.3518646 20.136115 9.1699219 21.166016 C 6.8779479 21.567995 5.07748 23.452972 5.0019531 25.839844 L 5.0019531 25.84375 L 5.0019531 25.847656 C 5.0002473 25.921148 5.0014278 25.95301 5.0019531 26 L 4.0253906 26 C 2.9153479 26 1.9702576 26.928944 2.0253906 28.068359 C 2.2663032 33.073057 4.1661376 37.000877 6.0859375 39.748047 C 7.0458375 41.121632 8.0128803 42.204357 8.7851562 42.990234 C 9.5574322 43.776112 10.203088 44.336174 10.267578 44.400391 L 10.269531 44.400391 C 11.48709 45.61096 13.319043 45.856732 15.714844 45.945312 C 18.110645 46.033893 21.170644 45.900391 24.998047 45.900391 C 28.82151 45.900391 31.81125 46.05551 34.175781 45.978516 C 36.538361 45.901576 38.379003 45.619441 39.691406 44.435547 C 40.003121 44.160169 42.041322 42.491193 43.949219 39.746094 C 45.859643 36.997356 47.73697 33.070824 47.974609 28.068359 C 48.029695 26.928938 47.084652 26 45.974609 26 L 44.894531 26 C 44.877179 25.889582 44.876716 25.810549 44.851562 25.691406 C 44.732701 25.128389 44.45532 24.462417 43.974609 23.871094 C 43.915403 22.129516 42.721917 20.716678 41.117188 20.244141 L 44.326172 17.625 C 45.26286 16.860181 45.18318 15.337296 44.171875 14.673828 L 37.722656 10.441406 L 37.722656 10.443359 C 37.469548 10.276954 37.191438 10.185569 36.910156 10.160156 C 36.628874 10.134744 36.344419 10.175303 36.082031 10.273438 C 35.557255 10.469703 35.118835 10.893718 34.955078 11.476562 L 33.089844 18.091797 C 32.946783 18.204759 32.798578 18.31097 32.666016 18.435547 C 32.135203 18.234003 31.614692 18 31 18 C 30.827867 18 30.694158 18.051472 30.533203 18.070312 C 29.768274 16.284254 28.055566 15 26 15 C 24.868541 15 23.850493 15.400483 23.029297 16.048828 L 23.029297 14 L 23.029297 7.5234375 C 23.048882 6.1994755 21.7223 5.1981543 20.455078 5.578125 L 15.462891 7.078125 L 15.1875 5.4804688 C 15.018596 4.5022955 14.139885 3.8404691 13.214844 3.828125 z M 13.216797 5.8203125 L 13.683594 8.5292969 L 15.029297 16.318359 L 15.185547 17.214844 C 14.807174 17.097762 14.419846 17 14 17 C 13.365432 17 12.765379 17.126219 12.214844 17.347656 L 4.9804688 10.076172 L 13.216797 5.8203125 z M 21.029297 7.4941406 L 21.029297 7.5 L 21.029297 14 L 21.029297 18.035156 C 20.609358 18.091465 20.209199 18.208921 19.808594 18.320312 C 19.120126 17.599321 18.232323 17.067772 17.179688 17.011719 L 17 15.978516 L 15.806641 9.0625 L 21.029297 7.4941406 z M 9 10 A 1 1 0 0 0 8 11 A 1 1 0 0 0 9 12 A 1 1 0 0 0 10 11 A 1 1 0 0 0 9 10 z M 12 10 A 1 1 0 0 0 11 11 A 1 1 0 0 0 12 12 A 1 1 0 0 0 13 11 A 1 1 0 0 0 12 10 z M 36.816406 12.238281 L 42.884766 16.220703 L 39.736328 18.787109 C 38.838412 17.704038 37.515992 17 36 17 C 35.817806 17 35.639552 17.013206 35.464844 17.035156 L 36.816406 12.238281 z M 26 17 C 27.453106 17 28.64667 18.020993 28.933594 19.376953 L 29.154297 20.423828 L 30.185547 20.130859 C 30.477808 20.047716 30.742807 20 31 20 C 31.507029 20 31.979486 20.138596 32.421875 20.378906 L 33.154297 20.775391 L 33.677734 20.128906 C 34.234732 19.439688 35.056255 19 36 19 C 37.40851 19 38.563263 19.962185 38.894531 21.261719 L 39.09375 22.048828 L 39.90625 22.013672 C 40.098024 22.005338 40.123213 22 40 22 C 41.116666 22 42 22.883334 42 24 C 42 23.90799 41.995905 23.93875 41.984375 24.111328 L 41.949219 24.628906 L 42.353516 24.955078 C 42.539226 25.105033 42.745654 25.544904 42.859375 26 L 27 26 A 1 1 0 0 0 26 25 A 1 1 0 0 0 25 26 L 7.0019531 26 C 7.0022192 25.948676 7.002819 25.867917 7.0019531 25.902344 C 7.0532004 24.282876 8.3640092 23 10 23 L 11 23 L 11 22 C 11 20.331516 12.331516 19 14 19 C 14.430468 19 14.836363 19.09503 15.214844 19.263672 L 15.65625 19.458984 L 16.083984 19.236328 C 16.379032 19.082761 16.678667 19 17 19 C 17.710737 19 18.317952 19.364472 18.675781 19.917969 L 19.119141 20.601562 L 19.876953 20.306641 C 20.385274 20.109419 20.928339 20 21.5 20 C 21.666052 20 21.837693 20.012703 22.013672 20.033203 L 22.886719 20.134766 L 23.099609 19.279297 C 23.424906 17.969848 24.584554 17 26 17 z M 15 21 A 1 1 0 0 0 14 22 A 1 1 0 0 0 15 23 A 1 1 0 0 0 16 22 A 1 1 0 0 0 15 21 z M 18 23 A 1 1 0 0 0 17 24 A 1 1 0 0 0 18 25 A 1 1 0 0 0 19 24 A 1 1 0 0 0 18 23 z M 33 23 A 1 1 0 0 0 32 24 A 1 1 0 0 0 33 25 A 1 1 0 0 0 34 24 A 1 1 0 0 0 33 23 z M 4.0273438 28 L 5.8320312 28 A 1.0001 1.0001 0 0 0 6.1582031 28 L 43.832031 28 A 1.0001 1.0001 0 0 0 44.158203 28 L 45.972656 28 C 45.883018 29.831937 45.546268 31.494011 45.070312 33 L 4.9394531 33 C 4.4580102 31.493586 4.118179 29.831991 4.0273438 28 z M 5.6992188 35 L 44.318359 35 C 43.718926 36.368065 43.020427 37.576513 42.306641 38.603516 C 40.554315 41.124778 38.850795 42.50844 38.361328 42.941406 L 38.357422 42.945312 L 38.353516 42.949219 C 37.649128 43.585856 36.328094 43.908218 34.109375 43.980469 C 31.890656 44.052719 28.874584 43.900391 24.998047 43.900391 C 21.125449 43.900391 18.045262 44.028733 15.789062 43.945312 C 13.532865 43.861894 12.204128 43.503852 11.679688 42.982422 C 11.390176 42.694138 10.923786 42.313294 10.210938 41.587891 C 9.4980787 40.862503 8.6081625 39.863104 7.7265625 38.601562 C 7.0086969 37.574321 6.3040588 36.36717 5.6992188 35 z"/>
</svg>
